{
    "asset" : {
        "generator" : "Khronos glTF Blender I/O v1.7.33",
        "version" : "2.0"
    },
    "scene" : 0,
    "scenes" : [
        {
            "name" : "Scene",
            "nodes" : [
                0
            ]
        }
    ],
    "nodes" : [
        {
            "mesh" : 0,
            "name" : "cuerpo",
            "translation" : [
                0,
                1.1550883054733276,
                0
            ]
        }
    ],
    "materials" : [
        {
            "doubleSided" : true,
            "name" : "Material Rojo",
            "pbrMetallicRoughness" : {
                "baseColorFactor" : [
                    0.8000000715255737,
                    0.03197607025504112,
                    0.018261488527059555,
                    1
                ],
                "metallicFactor" : 0,
                "roughnessFactor" : 0.4000000059604645
            }
        }
    ],
    "meshes" : [
        {
            "name" : "Cube.004",
            "primitives" : [
                {
                    "attributes" : {
                        "POSITION" : 0,
                        "NORMAL" : 1,
                        "TEXCOORD_0" : 2
                    },
                    "indices" : 3,
                    "material" : 0
                }
            ]
        }
    ],
    "accessors" : [
        {
            "bufferView" : 0,
            "componentType" : 5126,
            "count" : 2690,
            "max" : [
                0.8999656438827515,
                1.813127875328064,
                0.8906663656234741
            ],
            "min" : [
                -0.8999656438827515,
                -0.7819882035255432,
                -0.8906664252281189
            ],
            "type" : "VEC3"
        },
        {
            "bufferView" : 1,
            "componentType" : 5126,
            "count" : 2690,
            "type" : "VEC3"
        },
        {
            "bufferView" : 2,
            "componentType" : 5126,
            "count" : 2690,
            "type" : "VEC2"
        },
        {
            "bufferView" : 3,
            "componentType" : 5123,
            "count" : 15360,
            "type" : "SCALAR"
        }
    ],
    "bufferViews" : [
        {
            "buffer" : 0,
            "byteLength" : 32280,
            "byteOffset" : 0
        },
        {
            "buffer" : 0,
            "byteLength" : 32280,
            "byteOffset" : 32280
        },
        {
            "buffer" : 0,
            "byteLength" : 21520,
            "byteOffset" : 64560
        },
        {
            "buffer" : 0,
            "byteLength" : 30720,
            "byteOffset" : 86080
        }
    ],
    "buffers" : [
        {
            "byteLength" : 116800,
            "uri" : "virus1.bin"
        }
    ]
}
